<?xml version="1.0" encoding="UTF-8" standalone="no"?>
<!-- Created with Inkscape (http://www.inkscape.org/) -->

<svg
   xmlns:dc="http://purl.org/dc/elements/1.1/"
   xmlns:cc="http://creativecommons.org/ns#"
   xmlns:rdf="http://www.w3.org/1999/02/22-rdf-syntax-ns#"
   xmlns:svg="http://www.w3.org/2000/svg"
   xmlns="http://www.w3.org/2000/svg"
   xmlns:xlink="http://www.w3.org/1999/xlink"
   xmlns:sodipodi="http://sodipodi.sourceforge.net/DTD/sodipodi-0.dtd"
   xmlns:inkscape="http://www.inkscape.org/namespaces/inkscape"
   id="svg2"
   version="1.1"
   inkscape:version="0.48.3.1 r9886"
   width="243.28"
   height="243.77"
   xml:space="preserve"
   sodipodi:docname="LinkedIn.svg"><metadata
     id="metadata8"><rdf:RDF><cc:Work
         rdf:about=""><dc:format>image/svg+xml</dc:format><dc:type
           rdf:resource="http://purl.org/dc/dcmitype/StillImage" /><dc:title></dc:title></cc:Work></rdf:RDF></metadata><defs
     id="defs6"><clipPath
       clipPathUnits="userSpaceOnUse"
       id="clipPath18"><path
         d="m 1638.91,3554.86 c 0,75.18 62.44,136.09 139.47,136.09 l 1608.51,0 c 77.04,0 139.5,-60.91 139.5,-136.09 l 0,-1627.3 c 0,-75.14 -62.46,-136.07 -139.5,-136.07 l -1608.51,0 c -77.03,0 -139.47,60.93 -139.47,136.07 l 0,1627.3 0,0 z"
         id="path20"
         inkscape:connector-curvature="0" /></clipPath><linearGradient
       x1="0"
       y1="0"
       x2="1"
       y2="0"
       gradientUnits="userSpaceOnUse"
       gradientTransform="matrix(-8.3e-6,189.946,189.946,8.3e-6,258.265,179.149)"
       spreadMethod="pad"
       id="linearGradient22"><stop
         style="stop-opacity:1;stop-color:#2a63a0"
         offset="0"
         id="stop24" /><stop
         style="stop-opacity:1;stop-color:#80c0eb"
         offset="1"
         id="stop26" /></linearGradient><linearGradient
       inkscape:collect="always"
       xlink:href="#linearGradient22"
       id="linearGradient3230"
       gradientUnits="userSpaceOnUse"
       gradientTransform="matrix(-8.3e-6,189.946,189.946,8.3e-6,258.265,179.149)"
       spreadMethod="pad"
       x1="0"
       y1="0"
       x2="1"
       y2="0" /><linearGradient
       inkscape:collect="always"
       xlink:href="#linearGradient22"
       id="linearGradient3234"
       gradientUnits="userSpaceOnUse"
       gradientTransform="matrix(-8.3e-6,189.946,189.946,8.3e-6,258.265,179.149)"
       spreadMethod="pad"
       x1="0"
       y1="0"
       x2="1"
       y2="0" /><linearGradient
       inkscape:collect="always"
       xlink:href="#linearGradient22"
       id="linearGradient3237"
       gradientUnits="userSpaceOnUse"
       gradientTransform="matrix(-8.3e-7,18.9946,18.9946,8.3e-7,27.401205,-21.452692)"
       spreadMethod="pad"
       x1="0"
       y1="0"
       x2="1"
       y2="0" /><linearGradient
       inkscape:collect="always"
       xlink:href="#linearGradient22"
       id="linearGradient3245"
       gradientUnits="userSpaceOnUse"
       gradientTransform="matrix(-8.3e-7,18.9946,18.9946,8.3e-7,27.401205,-21.452692)"
       spreadMethod="pad"
       x1="0"
       y1="0"
       x2="1"
       y2="0" /></defs><sodipodi:namedview
     pagecolor="#ffffff"
     bordercolor="#666666"
     borderopacity="1"
     objecttolerance="10"
     gridtolerance="10"
     guidetolerance="10"
     inkscape:pageopacity="0"
     inkscape:pageshadow="2"
     inkscape:window-width="1868"
     inkscape:window-height="1056"
     id="namedview4"
     showgrid="false"
     inkscape:zoom="0.50803218"
     inkscape:cx="322.83124"
     inkscape:cy="153.53358"
     inkscape:window-x="52"
     inkscape:window-y="24"
     inkscape:window-maximized="1"
     inkscape:current-layer="g10" /><g
     id="g10"
     inkscape:groupmode="layer"
     inkscape:label="ink_ext_XXXXXX"
     transform="matrix(1.25,0,0,-1.25,0,243.76998)"><g
       id="g3239"
       transform="translate(-160.61975,-138.5992)"><path
         d="m 165.46571,316.11841 c 0,7.518 6.244,13.609 13.947,13.609 l 160.85099,0 c 7.704,0 13.95,-6.091 13.95,-13.609 l 0,-162.73 c 0,-7.514 -6.246,-13.607 -13.95,-13.607 l -160.85099,0 c -7.703,0 -13.947,6.093 -13.947,13.607 l 0,162.73"
         style="fill:url(#linearGradient3245);fill-opacity:1;fill-rule:nonzero;stroke:none"
         id="path28"
         inkscape:connector-curvature="0" /><path
         d="m 179.41271,327.18942 c -6.291,0 -11.409,-4.966 -11.409,-11.071 l 0,-162.73 c 0,-6.102 5.118,-11.068 11.409,-11.068 l 160.85099,0 c 6.293,0 11.412,4.966 11.412,11.068 l 0,162.73 c 0,6.105 -5.119,11.071 -11.412,11.071 l -160.85099,0 0,0 z m 160.85099,-189.945 -160.85099,0 c -9.089,0 -16.485,7.242 -16.485,16.144 l 0,162.73 c 0,8.903 7.396,16.147 16.485,16.147 l 160.85099,0 c 9.091,0 16.488,-7.244 16.488,-16.147 l 0,-162.73 c 0,-8.902 -7.397,-16.144 -16.488,-16.144 l 0,0"
         style="fill:#2a63a0;fill-opacity:1;fill-rule:nonzero;stroke:none"
         id="path30"
         inkscape:connector-curvature="0" /><path
         d="m 208.42671,268.20242 c 9.939,0 16.127,6.591 16.127,14.821 -0.185,8.414 -6.188,14.82 -15.939,14.82 -9.753,0 -16.128,-6.406 -16.128,-14.82 0,-8.23 6.187,-14.821 15.754,-14.821 l 0.186,0 0,0 z m 14.252,-97.478 0,85.772 -28.506,0 0,-85.772 28.506,0 0,0"
         style="fill:#ffffff;fill-opacity:1;fill-rule:evenodd;stroke:none"
         id="path32"
         inkscape:connector-curvature="0" /><path
         d="m 238.4547,170.72442 28.508,0 0,47.898 c 0,2.563 0.186,5.127 0.939,6.955 2.06,5.124 6.752,10.43 14.626,10.43 10.318,0 14.443,-7.869 14.443,-19.396 l 0,-45.887 28.506,0 0,49.18 c 0,26.346 -14.063,38.603 -32.821,38.603 -15.38,0 -22.131,-8.598 -25.882,-14.451 l 0.189,0 0,12.44 -28.508,0 c 0.374,-8.047 0,-85.772 0,-85.772 l 0,0"
         style="fill:#ffffff;fill-opacity:1;fill-rule:evenodd;stroke:none"
         id="path34"
         inkscape:connector-curvature="0" /></g></g></svg>