<?xml version="1.0" encoding="UTF-8" standalone="no"?>
<!-- Created with Inkscape (http://www.inkscape.org/) -->

<svg
   xmlns:dc="http://purl.org/dc/elements/1.1/"
   xmlns:cc="http://creativecommons.org/ns#"
   xmlns:rdf="http://www.w3.org/1999/02/22-rdf-syntax-ns#"
   xmlns:svg="http://www.w3.org/2000/svg"
   xmlns="http://www.w3.org/2000/svg"
   xmlns:xlink="http://www.w3.org/1999/xlink"
   xmlns:sodipodi="http://sodipodi.sourceforge.net/DTD/sodipodi-0.dtd"
   xmlns:inkscape="http://www.inkscape.org/namespaces/inkscape"
   id="svg2"
   version="1.1"
   inkscape:version="0.48.3.1 r9886"
   width="343.56"
   height="343.56"
   xml:space="preserve"
   sodipodi:docname="Twitter_icon.ai"><metadata
     id="metadata8"><rdf:RDF><cc:Work
         rdf:about=""><dc:format>image/svg+xml</dc:format><dc:type
           rdf:resource="http://purl.org/dc/dcmitype/StillImage" /><dc:title></dc:title></cc:Work></rdf:RDF></metadata><defs
     id="defs6"><clipPath
       clipPathUnits="userSpaceOnUse"
       id="clipPath16"><path
         d="m 235.908,377.428 c -27.196,0 -49.335,-22.14 -49.335,-49.332 l 0,0 0,-176.193 c 0,-27.191 22.139,-49.331 49.335,-49.331 l 0,0 176.186,0 c 27.195,0 49.333,22.14 49.333,49.331 l 0,0 0,176.193 c 0,27.192 -22.138,49.332 -49.333,49.332 l 0,0 -176.186,0 z"
         id="path18"
         inkscape:connector-curvature="0" /></clipPath><linearGradient
       x1="0"
       y1="0"
       x2="1"
       y2="0"
       gradientUnits="userSpaceOnUse"
       gradientTransform="matrix(-1.53e-5,274.85498,274.85498,1.53e-5,324.00049,102.57227)"
       spreadMethod="pad"
       id="linearGradient24"><stop
         style="stop-opacity:1;stop-color:#76d3f4"
         offset="0"
         id="stop26" /><stop
         style="stop-opacity:1;stop-color:#4ec3e7"
         offset="1"
         id="stop28" /></linearGradient><clipPath
       clipPathUnits="userSpaceOnUse"
       id="clipPath36"><path
         d="M 0,480 648,480 648,0 0,0 0,480 z"
         id="path38"
         inkscape:connector-curvature="0" /></clipPath><clipPath
       clipPathUnits="userSpaceOnUse"
       id="clipPath52"><path
         d="m 260.014,302.629 0,-96.489 c 0,-0.354 0,-0.647 -0.057,-0.942 l 0,0 c 0,-28.477 15.944,-49.247 48.775,-50.13 l 0,0 c 0.53,0 1.059,-0.059 1.647,-0.059 l 0,0 55.306,0 c 12.299,0 22.359,10.063 22.359,22.359 l 0,0 c 0,12.356 -10.06,22.358 -22.359,22.358 l 0,0 -57.777,0 c -2.412,0 -3.177,1.47 -3.177,4.06 l 0,0 0,32.241 60.954,0 c 12.299,0 22.359,10.004 22.359,22.359 l 0,0 c 0,12.296 -10.06,22.357 -22.359,22.357 l 0,0 -60.954,0 0,21.886 c 0,12.3 -10.06,22.361 -22.358,22.361 l 0,0 c -12.356,0 -22.359,-10.061 -22.359,-22.361"
         id="path54"
         inkscape:connector-curvature="0" /></clipPath><linearGradient
       x1="0"
       y1="0"
       x2="1"
       y2="0"
       gradientUnits="userSpaceOnUse"
       gradientTransform="matrix(0,-169.98193,-169.98193,0,324,324.99023)"
       spreadMethod="pad"
       id="linearGradient60"><stop
         style="stop-opacity:1;stop-color:#d2f0f8"
         offset="0"
         id="stop62" /><stop
         style="stop-opacity:1;stop-color:#81d6ee"
         offset="1"
         id="stop64" /></linearGradient><clipPath
       clipPathUnits="userSpaceOnUse"
       id="clipPath72"><path
         d="M 0,480 648,480 648,0 0,0 0,480 z"
         id="path74"
         inkscape:connector-curvature="0" /></clipPath><clipPath
       clipPathUnits="userSpaceOnUse"
       id="clipPath80"><path
         d="m 186.583,377.428 274.834,0 0,-112.616 -274.834,0 0,112.616 z"
         id="path82"
         inkscape:connector-curvature="0" /></clipPath><clipPath
       clipPathUnits="userSpaceOnUse"
       id="clipPath96"><path
         d="m 304.646,277.119 63.543,0 0,-7.1 -63.543,0 0,7.1 z"
         id="path98"
         inkscape:connector-curvature="0" /></clipPath><clipPath
       clipPathUnits="userSpaceOnUse"
       id="clipPath100"><path
         d="m 368.189,270.019 -63.544,0 0,7.101 63.544,0 0,-7.101 z"
         id="path102"
         inkscape:connector-curvature="0" /></clipPath><linearGradient
       x1="0"
       y1="0"
       x2="1"
       y2="0"
       gradientUnits="userSpaceOnUse"
       gradientTransform="matrix(63.543945,0,0,-63.543945,304.64551,273.56885)"
       spreadMethod="pad"
       id="linearGradient104"><stop
         style="stop-opacity:1;stop-color:#c2ebf6"
         offset="0"
         id="stop106" /><stop
         style="stop-opacity:1;stop-color:#daf3f7"
         offset="0.5"
         id="stop108" /><stop
         style="stop-opacity:1;stop-color:#daf3f7"
         offset="0.5"
         id="stop110" /><stop
         style="stop-opacity:1;stop-color:#c3ebf6"
         offset="0.899994"
         id="stop112" /><stop
         style="stop-opacity:1;stop-color:#c3ebf6"
         offset="1"
         id="stop114" /></linearGradient><clipPath
       clipPathUnits="userSpaceOnUse"
       id="clipPath134"><path
         d="m 263.067,301.722 c 0,-10.29 8.341,-18.632 18.632,-18.632 l 0,0 c 10.291,0 18.631,8.342 18.631,18.632 l 0,0 c 0,10.291 -8.34,18.631 -18.631,18.631 l 0,0 c -10.291,0 -18.632,-8.34 -18.632,-18.631"
         id="path136"
         inkscape:connector-curvature="0" /></clipPath><linearGradient
       x1="0"
       y1="0"
       x2="1"
       y2="0"
       gradientUnits="userSpaceOnUse"
       gradientTransform="matrix(0,-37.262695,-37.262695,0,281.69873,320.35352)"
       spreadMethod="pad"
       id="linearGradient142"><stop
         style="stop-opacity:1;stop-color:#ebf7f8"
         offset="0"
         id="stop144" /><stop
         style="stop-opacity:1;stop-color:#cceef7"
         offset="0.74176"
         id="stop146" /><stop
         style="stop-opacity:1;stop-color:#c7edf6"
         offset="1"
         id="stop148" /></linearGradient><clipPath
       clipPathUnits="userSpaceOnUse"
       id="clipPath156"><path
         d="m 263.067,301.722 c 0,-0.901 0.086,-1.78 0.21,-2.647 l 0,0 c 1.288,9.033 9.033,15.984 18.422,15.984 l 0,0 c 9.389,0 17.133,-6.951 18.421,-15.984 l 0,0 c 0.125,0.867 0.21,1.746 0.21,2.647 l 0,0 c 0,10.291 -8.34,18.631 -18.631,18.631 l 0,0 c -10.291,0 -18.632,-8.34 -18.632,-18.631"
         id="path158"
         inkscape:connector-curvature="0" /></clipPath><linearGradient
       x1="0"
       y1="0"
       x2="1"
       y2="0"
       gradientUnits="userSpaceOnUse"
       gradientTransform="matrix(0,-21.27832,-21.27832,0,281.69873,320.35352)"
       spreadMethod="pad"
       id="linearGradient164"><stop
         style="stop-opacity:1;stop-color:#f9f9f9"
         offset="0"
         id="stop166" /><stop
         style="stop-opacity:1;stop-color:#cceef7"
         offset="1"
         id="stop168" /></linearGradient><clipPath
       clipPathUnits="userSpaceOnUse"
       id="clipPath176"><path
         d="M 0,480 648,480 648,0 0,0 0,480 z"
         id="path178"
         inkscape:connector-curvature="0" /></clipPath><linearGradient
       inkscape:collect="always"
       xlink:href="#linearGradient24"
       id="linearGradient3386"
       gradientUnits="userSpaceOnUse"
       gradientTransform="matrix(-1.53e-5,274.85498,274.85498,1.53e-5,324.00049,102.57227)"
       spreadMethod="pad"
       x1="0"
       y1="0"
       x2="1"
       y2="0" /><linearGradient
       inkscape:collect="always"
       xlink:href="#linearGradient60"
       id="linearGradient3388"
       gradientUnits="userSpaceOnUse"
       gradientTransform="matrix(0,-169.98193,-169.98193,0,324,324.99023)"
       spreadMethod="pad"
       x1="0"
       y1="0"
       x2="1"
       y2="0" /><linearGradient
       inkscape:collect="always"
       xlink:href="#linearGradient104"
       id="linearGradient3390"
       gradientUnits="userSpaceOnUse"
       gradientTransform="matrix(63.543945,0,0,-63.543945,304.64551,273.56885)"
       spreadMethod="pad"
       x1="0"
       y1="0"
       x2="1"
       y2="0" /><linearGradient
       inkscape:collect="always"
       xlink:href="#linearGradient142"
       id="linearGradient3392"
       gradientUnits="userSpaceOnUse"
       gradientTransform="matrix(0,-37.262695,-37.262695,0,281.69873,320.35352)"
       spreadMethod="pad"
       x1="0"
       y1="0"
       x2="1"
       y2="0" /><linearGradient
       inkscape:collect="always"
       xlink:href="#linearGradient164"
       id="linearGradient3394"
       gradientUnits="userSpaceOnUse"
       gradientTransform="matrix(0,-21.27832,-21.27832,0,281.69873,320.35352)"
       spreadMethod="pad"
       x1="0"
       y1="0"
       x2="1"
       y2="0" /></defs><sodipodi:namedview
     pagecolor="#ffffff"
     bordercolor="#666666"
     borderopacity="1"
     objecttolerance="10"
     gridtolerance="10"
     guidetolerance="10"
     inkscape:pageopacity="0"
     inkscape:pageshadow="2"
     inkscape:window-width="1868"
     inkscape:window-height="1056"
     id="namedview4"
     showgrid="false"
     inkscape:zoom="0.39333333"
     inkscape:cx="405"
     inkscape:cy="300"
     inkscape:window-x="52"
     inkscape:window-y="24"
     inkscape:window-maximized="1"
     inkscape:current-layer="g10" /><g
     id="g10"
     inkscape:groupmode="layer"
     inkscape:label="Twitter_icon"
     transform="matrix(1.25,0,0,-1.25,0,343.56)"><g
       id="g3341"
       transform="translate(-183.91864,-103.72881)"><g
         id="g12"><g
           clip-path="url(#clipPath16)"
           id="g14"><g
             id="g20"><g
               id="g22"><path
                 id="path30"
                 style="fill:url(#linearGradient3386);stroke:none"
                 d="m 235.908,377.428 c -27.196,0 -49.335,-22.14 -49.335,-49.332 l 0,0 0,-176.193 c 0,-27.191 22.139,-49.331 49.335,-49.331 l 0,0 176.186,0 c 27.195,0 49.333,22.14 49.333,49.331 l 0,0 0,176.193 c 0,27.192 -22.138,49.332 -49.333,49.332 l 0,0 -176.186,0 z"
                 inkscape:connector-curvature="0" /></g></g></g></g><g
         id="g32"><g
           clip-path="url(#clipPath36)"
           id="g34"><g
             transform="translate(192.8823,324.0498)"
             id="g40"><path
               id="path42"
               style="fill:#8fdaeb;fill-opacity:1;fill-rule:evenodd;stroke:none"
               d="m 0,0 0,-168.099 c 0,-25.948 21.122,-47.07 47.069,-47.07 l 168.097,0 c 25.948,0 47.069,21.122 47.069,47.07 l 0,168.099 c 0,25.945 -21.121,47.068 -47.069,47.068 l -168.097,0 C 21.122,47.068 0,25.945 0,0 m 9.237,-3.295 c 0,22.711 18.416,41.185 41.186,41.185 l 161.389,0 c 22.771,0 41.186,-18.474 41.186,-41.185 l 0,-161.448 c 0,-22.772 -18.415,-41.189 -41.186,-41.189 l -161.389,0 c -22.77,0 -41.186,18.417 -41.186,41.189 l 0,161.448 z"
               inkscape:connector-curvature="0" /></g><g
             transform="translate(242.3345,302.6299)"
             id="g44"><path
               id="path46"
               style="fill:#ffffff;fill-opacity:1;fill-rule:nonzero;stroke:none"
               d="m 0,0 c 0,22.064 17.887,40.012 40.009,40.012 22.064,0 40.01,-17.948 40.01,-40.012 l 0,-4.235 43.303,0 c 22.063,0 40.009,-17.946 40.009,-40.009 0,-20.827 -15.886,-38.302 -36.125,-40.304 l 0.059,-0.295 c 20.239,-2.06 36.066,-19.65 36.066,-40.419 0,-22.064 -17.946,-40.009 -40.009,-40.009 l -61.19,0 C 25.006,-165.271 0,-136.559 0,-99.729 L 0,0 z"
               inkscape:connector-curvature="0" /></g></g></g><g
         id="g48"><g
           clip-path="url(#clipPath52)"
           id="g50"><g
             id="g56"><g
               id="g58"><path
                 id="path66"
                 style="fill:url(#linearGradient3388);stroke:none"
                 d="m 260.014,302.629 0,-96.489 c 0,-0.354 0,-0.647 -0.057,-0.942 l 0,0 c 0,-28.477 15.944,-49.247 48.775,-50.13 l 0,0 c 0.53,0 1.059,-0.059 1.647,-0.059 l 0,0 55.306,0 c 12.299,0 22.359,10.063 22.359,22.359 l 0,0 c 0,12.356 -10.06,22.358 -22.359,22.358 l 0,0 -57.777,0 c -2.412,0 -3.177,1.47 -3.177,4.06 l 0,0 0,32.241 60.954,0 c 12.299,0 22.359,10.004 22.359,22.359 l 0,0 c 0,12.296 -10.06,22.357 -22.359,22.357 l 0,0 -60.954,0 0,21.886 c 0,12.3 -10.06,22.361 -22.358,22.361 l 0,0 c -12.356,0 -22.359,-10.061 -22.359,-22.361"
                 inkscape:connector-curvature="0" /></g></g></g></g><g
         id="g68"><g
           clip-path="url(#clipPath72)"
           id="g70"><g
             id="g76"><g
               id="g78" /><g
               id="g84"><g
                 id="g86"
                 clip-path="url(#clipPath80)"
                 style="opacity:0.30000299"><g
                   id="g88"
                   transform="translate(186.5825,284.1689)"><path
                     id="path90"
                     style="fill:#d4f1f8;fill-opacity:1;fill-rule:nonzero;stroke:none"
                     d="m 0,0 c 37.932,-12.116 85.962,-19.356 138.216,-19.356 51.505,0 98.933,7.037 136.618,18.851 l 0,45.524 c -0.396,24.228 -18.352,44.278 -41.672,47.922 -1.772,0.203 -3.571,0.318 -5.397,0.318 l -181.218,0 c -1.218,0 -2.422,-0.062 -3.617,-0.153 C 18.749,89.953 0,69.225 0,44.204 L 0,0 z"
                     inkscape:connector-curvature="0" /></g></g></g></g><g
             id="g92"><g
               id="g94" /><g
               id="g116"><g
                 id="g118"
                 clip-path="url(#clipPath96)"
                 style="opacity:0.80000299"><g
                   id="g120"><g
                     id="g122"
                     clip-path="url(#clipPath100)"><g
                       id="g124"><g
                         id="g126"><path
                           id="path128"
                           style="fill:url(#linearGradient3390);stroke:none"
                           d="m 368.189,270.019 -63.544,0 0,7.101 63.544,0 0,-7.101 z"
                           inkscape:connector-curvature="0" /></g></g></g></g></g></g></g></g></g><g
         id="g130"><g
           clip-path="url(#clipPath134)"
           id="g132"><g
             id="g138"><g
               id="g140"><path
                 id="path150"
                 style="fill:url(#linearGradient3392);stroke:none"
                 d="m 263.067,301.722 c 0,-10.29 8.341,-18.632 18.632,-18.632 l 0,0 c 10.291,0 18.631,8.342 18.631,18.632 l 0,0 c 0,10.291 -8.34,18.631 -18.631,18.631 l 0,0 c -10.291,0 -18.632,-8.34 -18.632,-18.631"
                 inkscape:connector-curvature="0" /></g></g></g></g><g
         id="g152"><g
           clip-path="url(#clipPath156)"
           id="g154"><g
             id="g160"><g
               id="g162"><path
                 id="path170"
                 style="fill:url(#linearGradient3394);stroke:none"
                 d="m 263.067,301.722 c 0,-0.901 0.086,-1.78 0.21,-2.647 l 0,0 c 1.288,9.033 9.033,15.984 18.422,15.984 l 0,0 c 9.389,0 17.133,-6.951 18.421,-15.984 l 0,0 c 0.125,0.867 0.21,1.746 0.21,2.647 l 0,0 c 0,10.291 -8.34,18.631 -18.631,18.631 l 0,0 c -10.291,0 -18.632,-8.34 -18.632,-18.631"
                 inkscape:connector-curvature="0" /></g></g></g></g></g></g></svg>